<?xml version="1.0" standalone="no"?>
<!DOCTYPE svg PUBLIC "-//W3C//DTD SVG 20010904//EN"
 "http://www.w3.org/TR/2001/REC-SVG-20010904/DTD/svg10.dtd">
<svg version="1.0" xmlns="http://www.w3.org/2000/svg"
 width="361.000000pt" height="361.000000pt" viewBox="0 0 361.000000 361.000000"
 preserveAspectRatio="xMidYMid meet">
<metadata>
Created by potrace 1.14, written by Peter Selinger 2001-2017
</metadata>
<g transform="translate(0.000000,361.000000) scale(0.100000,-0.100000)"
fill="#000000" stroke="none">
<path d="M1305 2724 c-11 -3 -33 -10 -50 -17 -48 -18 -1147 -655 -1173 -680
-13 -12 -37 -44 -53 -72 -26 -46 -29 -59 -29 -145 0 -87 3 -99 30 -147 16 -28
45 -63 63 -77 38 -29 1093 -640 1152 -667 27 -12 64 -19 111 -19 118 0 210 57
270 170 14 26 19 56 19 120 0 76 -3 91 -30 139 -16 29 -44 65 -61 80 -18 14
-177 109 -353 211 -177 102 -321 188 -321 191 0 3 147 91 326 194 180 104 342
204 361 223 83 83 108 223 59 327 -26 57 -97 127 -152 150 -40 17 -135 27
-169 19z"/>
<path d="M2170 2716 c-136 -36 -232 -174 -216 -310 8 -67 49 -148 96 -188 21
-18 182 -116 358 -218 177 -102 318 -188 314 -191 -4 -4 -149 -89 -322 -189
-173 -99 -330 -193 -349 -208 -19 -15 -48 -52 -65 -82 -28 -50 -31 -63 -31
-140 0 -64 5 -94 19 -120 36 -68 77 -109 138 -139 51 -26 73 -31 132 -31 47 0
84 7 111 19 68 31 1118 640 1155 670 19 15 50 56 68 90 60 117 38 254 -54 343
-46 43 -1115 664 -1189 690 -58 20 -102 21 -165 4z"/>
</g>
</svg>
