<svg width="169" height="46" viewBox="0 0 169 46" xmlns="http://www.w3.org/2000/svg" xmlns:xlink="http://www.w3.org/1999/xlink">
    <defs>
        <linearGradient x1="22.502%" y1="72.533%" x2="38.741%" y2="20.788%" id="j2bbnr9zsc">
            <stop stop-color="#4154A4" offset="0%"/>
            <stop stop-color="#6050A1" offset="100%"/>
        </linearGradient>
        <linearGradient x1="-56.006%" y1="105.669%" x2="116.49%" y2="15.083%" id="yk70bx4etd">
            <stop stop-color="#393839" offset="0%"/>
            <stop stop-color="#8B8D90" offset="100%"/>
        </linearGradient>
        <linearGradient x1="-84.021%" y1="136.866%" x2="51.046%" y2="49.273%" id="oi3b5fqabe">
            <stop stop-color="#393839" offset="0%"/>
            <stop stop-color="#8B8D90" offset="100%"/>
        </linearGradient>
        <linearGradient x1="13.966%" y1="80.337%" x2="73.702%" y2="21.189%" id="1rtadwrx1g">
            <stop stop-color="#6050A1" offset="0%"/>
            <stop stop-color="#884399" offset="100%"/>
        </linearGradient>
        <linearGradient x1="51.304%" y1="-2.158%" x2="43.508%" y2="309.643%" id="pzpnug203j">
            <stop stop-color="#4154A4" offset="0%"/>
            <stop stop-color="#8B8D90" offset="100%"/>
        </linearGradient>
        <path id="yxcwlhfooa" d="M.57 0 0 39h22.896L23 31.875H8.703l.13-8.92H21.32l.104-7.126H8.938l.126-8.676h13.418L22.587 0z"/>
        <path d="m27.723 0-8.56 27.034c-.46 1.45-.765 2.783-.91 3.998h-.165c-.075-1.124-.321-2.42-.738-3.89L9.552 0H0l12.807 39h10.046L37 0h-9.277z" id="5nnx6xmzvf"/>
        <path d="M6.067 5.772C2.12 9.62.097 14.637.003 20.822c-.088 5.809 1.572 10.457 4.979 13.945C8.389 38.257 13.113 40 19.155 40c4.631 0 8.395-.683 11.29-2.05l.12-7.957c-2.899 1.655-6.078 2.482-9.538 2.482-3.625 0-6.492-1.11-8.6-3.331-2.108-2.221-3.134-5.201-3.077-8.942.059-3.902 1.24-6.994 3.546-9.278C15.2 8.64 18.202 7.498 21.9 7.498c3.368 0 6.36.774 8.973 2.32L31 1.43C28.378.476 25.145 0 21.3 0 15.094 0 10.016 1.924 6.067 5.772" id="uocngl24yh"/>
        <path d="M1.214 0C.538.006-.004.424 0 .935V.94l.544 37.14c.008.514.564.925 1.242.92.676-.006 1.218-.424 1.214-.935v-.005L2.455.92C2.448.41 1.899 0 1.228 0h-.014z" id="2n61gnz27i"/>
    </defs>
    <g fill="none" fill-rule="evenodd">
        <g fill="#4154A4">
            <path d="M5.831 3.306c-.002-.438.147-.8.45-1.084.302-.285.696-.428 1.182-.43.47-.002.855.137 1.153.418.297.282.448.642.45 1.08.003.452-.143.82-.438 1.105-.294.284-.677.427-1.148.43-.486.002-.882-.137-1.187-.419-.306-.281-.46-.648-.462-1.1zm-2.756 8.073c.001.381.072.689.21.922.138.232.313.419.527.559.213.14.453.234.719.282.266.049.528.072.786.07.47-.001.84-.031 1.105-.09.265-.057.55-.143.853-.258l-.02-3.627-1.8.009c-.76.004-1.347.184-1.763.539-.416.356-.622.887-.617 1.594zM1.799 3.325c-.003-.438.147-.799.45-1.084.301-.284.695-.427 1.182-.43.47-.002.855.138 1.152.42.298.28.448.64.45 1.079.003.452-.143.82-.437 1.105-.295.284-.678.427-1.148.43-.486.002-.882-.138-1.187-.419-.306-.281-.46-.648-.462-1.1zM12.01 16.341c-1.048.005-1.888-.086-2.519-.275-.631-.187-1.108-.528-1.43-1.021a9.464 9.464 0 0 1-1.227.398c-.516.137-1.115.207-1.799.21a8.36 8.36 0 0 1-1.835-.192 4.777 4.777 0 0 1-1.61-.66 3.466 3.466 0 0 1-1.146-1.257c-.292-.529-.44-1.167-.444-1.917-.004-.777.129-1.46.399-2.049.27-.588.65-1.08 1.142-1.48A5.038 5.038 0 0 1 3.279 7.2a7.587 7.587 0 0 1 2.162-.307l4.921-.024.03 5.472c.004.65.128 1.084.373 1.302.244.219.677.326 1.3.323l.182-.001c.213 0 .377.09.492.273.115.184.173.487.176.911.002.495-.007.817-.029.965-.022.15-.094.224-.215.224l-.66.004z"/>
            <path d="M15.619 13.947c.213 0 .376.098.491.295.115.198.174.523.177.975.002.368-.023.644-.075.827-.053.185-.147.277-.283.278l-3.372.016c-.38.002-.638-.082-.776-.25-.138-.17-.208-.48-.21-.933-.002-.368.053-.658.165-.87.113-.213.284-.32.511-.321l3.372-.017z"/>
            <path d="M18.99 13.931c.213-.001.377.097.492.295.115.197.174.522.177.974.002.368-.023.644-.076.828-.052.184-.146.276-.283.277l-3.371.016c-.38.002-.639-.081-.776-.25-.138-.17-.208-.48-.21-.933-.003-.367.053-.657.165-.87.113-.213.283-.32.511-.32l3.372-.017z"/>
            <path d="M22.362 13.915c.213-.001.377.097.492.294.115.198.174.523.176.975.002.368-.023.644-.075.828-.052.184-.147.276-.283.277l-3.372.016c-.38.002-.638-.082-.776-.25-.138-.17-.207-.48-.21-.933-.002-.367.053-.658.166-.87.113-.213.283-.32.51-.32l3.372-.017z"/>
            <path d="M25.734 13.898c.213 0 .376.097.491.295.115.197.174.522.177.975.002.367-.023.643-.076.827-.052.184-.146.276-.282.277l-3.372.017c-.38.001-.638-.082-.776-.251-.138-.169-.208-.48-.21-.932-.003-.368.053-.658.165-.87.113-.213.284-.32.511-.321l3.372-.017z"/>
            <path d="M29.106 13.882c.212-.001.376.097.491.294.115.198.174.523.176.975.002.368-.023.644-.075.827-.052.185-.146.277-.283.278l-3.371.016c-.38.002-.639-.081-.777-.25-.137-.17-.207-.48-.21-.933-.002-.367.053-.658.166-.87.113-.213.283-.32.51-.32l3.373-.017z"/>
            <path d="M33.17 19.461c-.003-.438.147-.8.45-1.084.301-.284.695-.427 1.181-.43.47-.002.856.137 1.153.419.298.281.448.641.45 1.08.003.452-.143.82-.438 1.105-.294.284-.677.427-1.148.43-.486.002-.882-.138-1.187-.419-.305-.282-.459-.648-.462-1.1m-4.032.02c-.002-.44.147-.8.45-1.085.302-.284.696-.427 1.182-.43.47-.002.855.137 1.153.419.298.28.448.64.45 1.08.003.452-.143.82-.438 1.104-.295.284-.677.428-1.148.43-.486.002-.882-.137-1.187-.418-.306-.282-.46-.649-.462-1.1m.392-3.227c-.38.002-.672-.092-.879-.282-.206-.19-.31-.468-.312-.836-.002-.368.061-.669.189-.903a.624.624 0 0 1 .579-.352 20.26 20.26 0 0 0 1.48-.05 2.26 2.26 0 0 0 .955-.28c.182-.114.333-.253.454-.416a1.97 1.97 0 0 0 .281-.542c.067-.198.112-.404.134-.616a5.65 5.65 0 0 0 .03-.594l-.026-4.624 3.099-.015.03 5.218c.005 1.06-.226 1.928-.692 2.601-.468.674-1.247 1.156-2.339 1.443-.47.116-.933.185-1.388.209a34.55 34.55 0 0 1-1.595.04M41.576 11.446c.005.806.217 1.402.637 1.789.42.387 1.017.578 1.792.574a6.114 6.114 0 0 0 1.024-.08c.288-.05.539-.111.751-.183l-.012-2.184a3.876 3.876 0 0 0-.108-.912 2.35 2.35 0 0 0-.334-.762 1.64 1.64 0 0 0-.619-.538 1.951 1.951 0 0 0-.912-.197 2.563 2.563 0 0 0-.82.142c-.272.094-.51.24-.714.438-.204.2-.37.458-.497.777-.128.319-.19.697-.188 1.136zm.39-7.701c-.122-.113-.233-.293-.333-.54a2.178 2.178 0 0 1-.153-.816c-.004-.72.247-1.298.753-1.732C42.74.224 43.441.005 44.337 0c.258-.001.547.019.866.06.32.04.585.096.798.165l-.334 1.296a5.452 5.452 0 0 0-.49-.093 3.983 3.983 0 0 0-.627-.05c-.35.002-.649.102-.898.3-.25.2-.374.47-.372.809.002.382.156.685.461.91.305.225.761.335 1.369.332l1.162-.005.008 1.442-5.285.026-.009-1.442.98-.005zm.966 13.845c.972-.005 1.69-.154 2.15-.445.462-.293.692-.721.688-1.287a5.128 5.128 0 0 1-1 .249c-.35.051-.744.078-1.185.08a7.828 7.828 0 0 1-2.097-.255c-.639-.174-1.187-.443-1.645-.809a3.786 3.786 0 0 1-1.079-1.394c-.261-.564-.394-1.228-.398-1.992a5.737 5.737 0 0 1 .32-1.932 4.693 4.693 0 0 1 .992-1.659c.446-.482 1.013-.87 1.702-1.164.69-.293 1.498-.442 2.424-.447a6.221 6.221 0 0 1 1.938.288c.609.195 1.15.482 1.623.861.472.38.847.859 1.124 1.437.277.579.417 1.25.421 2.013l.024 4.157c.005.848-.132 1.567-.41 2.155a3.59 3.59 0 0 1-1.187 1.427c-.515.363-1.136.624-1.864.783-.728.159-1.54.24-2.436.245-.456.002-.946-.027-1.47-.088a14.791 14.791 0 0 1-1.448-.237l.443-2.25c.35.069.714.13 1.094.185.38.055.805.081 1.276.079zM52.058 19.857a8.641 8.641 0 0 1-1.242-.079 7.283 7.283 0 0 1-.947-.186l.375-2.27c.182.026.357.05.524.07.167.02.335.03.502.03.577-.003.99-.16 1.239-.473.249-.312.371-.815.367-1.507l-.05-8.781 3.122-.015.052 9.268c.004.778-.102 1.429-.32 1.953-.217.524-.515.932-.892 1.224a3.262 3.262 0 0 1-1.273.6c-.47.108-.956.164-1.457.166"/>
            <g>
                <path d="M1.574 39.204c-.196-.22-.374-.525-.533-.912a3.455 3.455 0 0 1-.244-1.308 3.928 3.928 0 0 1 .273-1.487 3.35 3.35 0 0 1 .87-1.24c.395-.362.888-.645 1.48-.85.59-.203 1.276-.307 2.056-.31.434-.003.907.03 1.417.096.51.068.937.162 1.283.285L7.65 35.6c-.166-.04-.414-.091-.743-.152-.33-.06-.69-.09-1.08-.088-.585.003-1.079.164-1.482.485-.403.32-.603.75-.6 1.291.002.264.052.516.15.758.1.242.27.463.51.662.241.2.55.355.925.464.375.109.848.162 1.418.159l1.911-.01.014 2.328-8.659.042L0 39.212l1.574-.008zM14.14 26.197l.087 15.273-3.081.015-.087-15.273zM17.53 45.091a8.558 8.558 0 0 1-1.237-.077 7.289 7.289 0 0 1-.923-.183l.37-2.225c.18.026.352.05.518.07.164.02.33.03.495.029.57-.003.977-.158 1.223-.463.245-.306.366-.799.362-1.478l-.048-8.602 3.08-.015.04 6.961 1.889-.01c.21 0 .372.093.485.28.114.186.172.487.174.902.003.457-.015.762-.051.915-.037.153-.1.229-.19.23l-2.294.01c-.026.749-.15 1.359-.372 1.83-.222.473-.516.845-.882 1.117a3.176 3.176 0 0 1-1.234.557c-.456.099-.925.15-1.404.152"/>
                <path d="M25.556 44.512c-.002-.43.146-.784.444-1.062.298-.279.687-.42 1.167-.422.465-.002.844.135 1.138.41.294.276.443.629.445 1.058.002.443-.142.804-.432 1.083-.291.278-.669.419-1.134.421-.48.002-.87-.135-1.172-.41-.301-.276-.453-.635-.456-1.078M23.3 39.099c.465-.002.85-.042 1.158-.12.306-.077.542-.196.706-.356.164-.16.275-.359.334-.594.058-.236.087-.52.085-.853l-.028-5.05 3.058-.014.028 4.966c.004.596.231 1.076.683 1.441.452.365 1.068.546 1.847.542.225-.001.39.088.497.267.106.18.16.471.162.873.003.485-.01.803-.04.956-.029.152-.096.229-.2.23a6.963 6.963 0 0 1-.957-.069 5.645 5.645 0 0 1-1.002-.224 4.335 4.335 0 0 1-.902-.41 2.645 2.645 0 0 1-.723-.631c-.342.459-.858.8-1.546 1.025-.689.226-1.603.34-2.742.346-.36.002-.645-.087-.856-.266-.21-.179-.317-.455-.32-.83-.002-.4.064-.706.198-.915a.636.636 0 0 1 .56-.314"/>
                <path d="M33.81 28.575c-.003-.43.149-.783.455-1.062.305-.279.69-.42 1.156-.421.464-.002.844.134 1.138.41.294.276.442.628.444 1.057.003.444-.141.805-.432 1.083-.29.279-.669.419-1.133.421-.48.003-.871-.138-1.172-.42a1.411 1.411 0 0 1-.456-1.068zm-2.221 12.811c-.33.002-.608-.08-.834-.245-.226-.165-.34-.449-.342-.85-.002-.291.05-.569.152-.832.104-.264.306-.397.605-.398l4.633-.022c.585-.003 1.06-.061 1.427-.174.367-.112.64-.27.818-.471.18-.202.298-.434.356-.698.059-.263.087-.561.085-.894-.004-.831-.3-1.46-.887-1.887-.588-.426-1.481-.637-2.68-.63-.3 0-.671.03-1.113.088a7.875 7.875 0 0 0-1.337.297l-.664-2.116a10.35 10.35 0 0 1 1.976-.498 12.35 12.35 0 0 1 1.664-.144c1.094-.005 2.036.115 2.824.36.79.246 1.436.6 1.94 1.062.505.462.868.996 1.09 1.605.22.609.333 1.266.337 1.972a6.24 6.24 0 0 1-.106 1.185c.196.277.479.497.847.661.368.165.762.246 1.182.244.18 0 .311.075.395.227.083.152.126.463.13.934 0 .263-.002.471-.009.623-.006.153-.013.26-.02.323a.736.736 0 0 1-.033.156c-.015.041-.03.062-.045.062a6.515 6.515 0 0 1-.787-.048 4.905 4.905 0 0 1-.89-.193 4.019 4.019 0 0 1-.901-.411 2.903 2.903 0 0 1-.78-.703c-.85.918-2.084 1.382-3.704 1.39l-5.33.025z"/>
                <path d="M43.562 39.001c.465-.002.85-.042 1.158-.12.306-.077.542-.196.706-.356.164-.16.275-.358.334-.594s.087-.52.085-.853l-.062-11.034 3.058-.015.066 11.533c.003.637-.076 1.188-.238 1.653a2.593 2.593 0 0 1-.815 1.168c-.38.313-.885.548-1.514.703-.629.156-1.415.236-2.36.24-.375.002-.664-.09-.867-.276-.204-.186-.307-.459-.309-.82-.002-.401.064-.706.198-.914a.636.636 0 0 1 .56-.315M54.913 26 55 41.273l-3.081.015-.087-15.273z"/>
            </g>
        </g>
        <g transform="translate(75 3)">
            <mask id="8827ttfafb" fill="#fff">
                <use xlink:href="#yxcwlhfooa"/>
            </mask>
            <g mask="url(#8827ttfafb)">
                <path fill="url(#j2bbnr9zsc)" d="m.57.652-.57 39h22.896L23 32.527H8.703l.13-8.92H21.32l.104-7.126H8.938l.126-8.676h13.418l.105-7.153z" transform="translate(0 -.652)"/>
                <path d="m52.645.652-8.302 27.034c-.447 1.451-.742 2.783-.884 3.998h-.16c-.072-1.124-.31-2.42-.715-3.89L35.02.653h-9.265l12.423 39h9.744l13.721-39h-8.998z" fill="url(#yk70bx4etd)" transform="translate(0 -.652)"/>
                <path d="M68.317 5.82c-3.829 3.88-5.788 8.939-5.88 15.176-.085 5.856 1.524 10.543 4.827 14.06 3.304 3.518 7.884 5.277 13.74 5.277 4.49 0 8.14-.69 10.946-2.068l.117-8.022c-2.81 1.668-5.893 2.502-9.248 2.502-3.514 0-6.293-1.12-8.337-3.36-2.044-2.238-3.038-5.243-2.983-9.015.057-3.934 1.203-7.053 3.438-9.355 2.234-2.303 5.144-3.454 8.73-3.454 3.265 0 6.164.78 8.698 2.339l.123-8.458C89.946.48 86.812 0 83.084 0c-6.016 0-10.94 1.94-14.767 5.82" fill="url(#oi3b5fqabe)" transform="translate(0 -.652)"/>
            </g>
        </g>
        <use fill="url(#1rtadwrx1g)" xlink:href="#5nnx6xmzvf" transform="translate(101 3)"/>
        <use fill="#884399" xlink:href="#uocngl24yh" transform="translate(138 2)"/>
        <g transform="translate(63 3)">
            <mask id="6y9ec2cwzk" fill="#fff">
                <use xlink:href="#2n61gnz27i"/>
            </mask>
            <use fill="#4154A4" xlink:href="#2n61gnz27i"/>
            <path d="M1.214 0C.538.006-.004.424 0 .935V.94l.544 37.14c.008.514.564.925 1.242.92.676-.006 1.218-.424 1.214-.935v-.005L2.455.92C2.448.41 1.899 0 1.228 0h-.014z" fill="url(#pzpnug203j)" mask="url(#6y9ec2cwzk)"/>
        </g>
    </g>
</svg>
