<svg xmlns="http://www.w3.org/2000/svg" xmlns:xlink="http://www.w3.org/1999/xlink" version="1.1" id="Layer_1" x="0px" y="0px" viewBox="-3 -3 434 382" style="enable-background:new 0 0 428.58 376.58;" xml:space="preserve"><g id="deeditor_bgCarrier" stroke-width="0">
  <rect id="dee_c_e" x="-3" y="-3" width="434" height="382" rx="38.4" fill="#ffffff" strokewidth="0"/>
</g>
<style type="text/css">
	.st0{fill:#0052A0;}
	.st1{fill:#009AD8;}
	.st2{fill:#24B1BA;}
	.st3{fill:#007B8B;}
	.st4{fill:#05062B;}
</style>
<path class="st0" d="M355.41,19.41c-4.76-4.18-11.06-6.06-17.75-5.28l-67.51,7.83c-3.18,0.37-5.77,3.26-5.77,6.46  c0,2.65,1.79,4.74,4.33,5.09c6.26,0.89,10.64,6.03,10.64,12.5v14.2l-38.76,4.5c-31.46,3.65-57.06,32.22-57.06,63.68v41.66  c0,3.18,2.59,5.47,5.77,5.1c2.63-0.31,4.92-2.35,5.59-4.97c1.63-6.45,7.28-11.48,13.75-12.23l97.07-11.26  c31.46-3.65,57.06-32.22,57.06-63.69V36.32C362.78,29.61,360.16,23.61,355.41,19.41 M285.87,31.05l51.79-6.01  c3.78-0.44,7.35,0.63,10.04,2.99c2.68,2.37,4.16,5.77,4.16,9.56c0,7.83-6.37,14.93-14.19,15.84l-47.4,5.5V44.74  C290.27,39.52,288.66,34.8,285.87,31.05 M351.86,84.25c0,25.45-20.7,48.56-46.14,51.51l-97.07,11.26c-5.21,0.6-10.12,2.78-14.2,6.04  v-25.96c0-25.44,20.7-48.55,46.14-51.5l38.76-4.5l58.31-6.77c0.78-0.09,1.55-0.23,2.32-0.39c0.23-0.05,0.45-0.1,0.68-0.16  c0.56-0.13,1.11-0.28,1.65-0.44c0.23-0.07,0.45-0.14,0.68-0.21c0.66-0.22,1.31-0.46,1.94-0.73c0.08-0.03,0.15-0.06,0.23-0.09  c0.71-0.31,1.41-0.65,2.09-1.01c0.19-0.1,0.36-0.21,0.55-0.31c0.5-0.28,1-0.58,1.49-0.89c0.2-0.13,0.39-0.25,0.59-0.38  c0.53-0.36,1.05-0.74,1.56-1.13c0.11-0.08,0.21-0.16,0.32-0.24c0.04-0.03,0.07-0.05,0.1-0.08V84.25z" fill="#000000"/>
<path class="st1" d="M273.13,79.95l-14.35,1.67c-2.54,0.29-4.59,2.59-4.59,5.12c0,2.54,2.06,4.35,4.59,4.06l14.35-1.67  c9.25-1.07,16.78,5.58,16.78,14.83s-7.53,17.65-16.78,18.72c-2.54,0.29-4.59,2.59-4.59,5.12c0,2.54,2.05,4.35,4.59,4.06  c14.32-1.66,25.96-14.66,25.96-28.97C299.09,88.58,287.44,78.29,273.13,79.95" fill="#000000"/>
<path class="st2" d="M189.56,62.17l62.3-7.23c3.18-0.37,5.76-3.25,5.76-6.43c0-3.18-2.58-5.46-5.76-5.09l-62.3,7.23  c-3.18,0.37-5.76,3.25-5.76,6.43C183.8,60.26,186.38,62.54,189.56,62.17" fill="#000000"/>
<path class="st2" d="M185.71,90.82c0-3.18-2.58-5.46-5.76-5.09l-62.3,7.23c-3.18,0.37-5.76,3.25-5.76,6.43  c0,3.18,2.58,5.46,5.76,5.09l62.3-7.23C183.13,96.88,185.71,94,185.71,90.82" fill="#000000"/>
<path class="st3" d="M100.23,106.5l1.39-0.16c3.18-0.37,5.76-3.25,5.76-6.43c0-3.18-2.58-5.46-5.76-5.09l-1.39,0.16  c-3.18,0.37-5.76,3.25-5.76,6.43C94.47,104.59,97.04,106.87,100.23,106.5" fill="#000000"/>
<path class="st3" d="M173.58,120.43l-1.39,0.16c-3.18,0.37-5.76,3.25-5.76,6.43s2.58,5.46,5.76,5.09l1.39-0.16  c3.18-0.37,5.76-3.25,5.76-6.43C179.34,122.34,176.76,120.06,173.58,120.43" fill="#000000"/>
<path class="st3" d="M154.82,66.21l19.41-2.25c3.18-0.37,5.76-3.25,5.76-6.43c0-3.18-2.58-5.46-5.76-5.09l-19.41,2.25  c-3.18,0.37-5.76,3.25-5.76,6.43S151.63,66.58,154.82,66.21" fill="#000000"/>
<path class="st2" d="M164,127.3c0-3.18-2.58-5.46-5.76-5.09l-86.08,9.99c-3.18,0.37-5.76,3.25-5.76,6.43c0,3.18,2.58,5.46,5.76,5.09  l86.08-9.99C161.42,133.36,164,130.48,164,127.3" fill="#000000"/>
<path class="st2" d="M171.76,154.6l-53.27,6.18c-3.18,0.37-5.76,3.25-5.76,6.43c0,3.18,2.58,5.46,5.76,5.09l53.27-6.18  c3.18-0.37,5.76-3.25,5.76-6.43C177.52,156.51,174.94,154.23,171.76,154.6" fill="#000000"/>
<path class="st1" d="M260.53,124.14l-9.08,1.05c-2.54,0.29-4.59,2.59-4.59,5.13c0,2.54,2.05,4.35,4.59,4.06l9.08-1.05  c2.54-0.29,4.59-2.59,4.59-5.13C265.12,125.67,263.07,123.85,260.53,124.14" fill="#000000"/>
<path class="st4" d="M58.19,274.17h16.43v-29.84h-7.31v23.44h-7.96c-3.49,0-5.91-1.18-7.25-3.55c-1.06-1.91-1.6-4.52-1.6-7.82V227.4  h-7.31v28.48h0.06v11.36c0,3.97-1.17,7.25-3.52,9.86c-2.37,2.69-5.36,4.03-8.97,4.03c-3.63,0-6.57-1.28-8.82-3.85  c-2.19-2.53-3.29-5.77-3.29-9.74c0-4.79,2.28-9.01,6.84-12.64l-4.23-5.15c-6.55,5.29-9.83,11.22-9.83,17.79  c0,5.64,1.79,10.34,5.39,14.09c3.65,3.93,8.32,5.89,14,5.89c5.37,0,9.92-1.86,13.64-5.56c3.59-3.55,5.5-7.08,5.71-10.6  c1.1,1.72,3.79,2.64,8.02,2.78V274.17z" fill="#000000"/>
<path class="st4" d="M61.39,276.8c-1.36,0-2.39,0.42-3.08,1.27c-0.67,0.73-1.01,1.63-1.01,2.69s0.35,1.94,1.04,2.63  c0.69,0.79,1.71,1.18,3.05,1.18c1.4,0,2.45-0.4,3.14-1.18c0.69-0.69,1.04-1.57,1.04-2.63s-0.34-1.96-1.01-2.69  C63.87,277.23,62.81,276.8,61.39,276.8" fill="#000000"/>
<path class="st4" d="M71.16,276.8c-1.4,0-2.45,0.42-3.14,1.27c-0.67,0.73-1.01,1.63-1.01,2.69s0.35,1.94,1.04,2.63  c0.69,0.79,1.73,1.18,3.11,1.18c1.34,0,2.39-0.4,3.14-1.18c0.65-0.71,0.98-1.59,0.98-2.63s-0.33-1.95-0.98-2.69  C73.57,277.23,72.52,276.8,71.16,276.8" fill="#000000"/>
<path class="st4" d="M181.48,239.51c1.34,0,2.39-0.4,3.14-1.21c0.65-0.75,0.98-1.65,0.98-2.69s-0.32-1.94-0.98-2.69  c-0.75-0.79-1.79-1.19-3.14-1.19c-1.4,0-2.45,0.4-3.14,1.19c-0.69,0.75-1.04,1.65-1.04,2.69c0,1.07,0.35,1.96,1.04,2.69  C179.03,239.1,180.07,239.51,181.48,239.51" fill="#000000"/>
<path class="st4" d="M171.71,239.51c1.4,0,2.45-0.4,3.14-1.21c0.69-0.73,1.04-1.63,1.04-2.69c0-1.05-0.36-1.96-1.1-2.75  c-0.71-0.75-1.73-1.13-3.08-1.13c-1.34,0-2.37,0.4-3.08,1.19c-0.67,0.75-1.01,1.65-1.01,2.69c0,1.07,0.33,1.96,1.01,2.69  C169.34,239.1,170.36,239.51,171.71,239.51" fill="#000000"/>
<path class="st4" d="M220.22,267.77h-5.5h-2.34c-2.94,0-5.06-1.2-6.36-3.61c-1.07-1.94-1.6-4.52-1.6-7.76v-29.19h-7.25v40.55h-6.45  h-2.55c-2.9,0-5.02-1.18-6.36-3.55c-1.06-1.91-1.6-4.52-1.6-7.81v-12.08h-7.25v23.44h-2.81h-5.12c-2.39,0-4.06-1.17-5-3.52  c0.57-1.32,0.86-3.05,0.86-5.18c0-4.38-1.56-8.14-4.68-11.28c-3.1-3.08-6.87-4.62-11.31-4.62c-4.44,0-8.21,1.54-11.31,4.62  c-3.12,3.14-4.68,6.9-4.68,11.28v7.07c0,0.61-0.4,1.06-1.18,1.36c-0.38,0.12-0.78,0.21-1.21,0.27h-0.5h-6.33h-2.9v-9.44  c0-4.34-1.54-8.07-4.62-11.19c-3.14-3.14-6.93-4.7-11.37-4.7c-4.48,0-8.29,1.57-11.42,4.7c-3.08,3.12-4.62,6.85-4.62,11.19  c0,4.34,1.56,8.07,4.68,11.19c3.1,3.1,6.89,4.65,11.37,4.65h8.23c-0.41,1.32-1.86,2.6-4.35,3.85c-2.82,1.34-6.67,2.01-11.54,2.01  v6.39c7.06,0,12.65-1.41,16.75-4.23c3.45-2.29,5.57-4.96,6.36-8.02h3.43h5.8h0.53v-0.02c2.01-0.05,3.65-0.37,4.88-0.99  c1.77-0.75,2.87-1.51,3.28-2.28c2.53,2.68,6.1,4.03,10.72,4.03c4.56,0,8.15-1.38,10.77-4.14c1.48,2.27,3.99,3.4,7.52,3.4h1.77h5.18  h10.06v-2.99c1.66,2,4.21,2.99,7.64,2.99h0.21h2.66h13.7v-2.46c0.92,1.45,3.16,2.19,6.72,2.22v0.24l16.31-0.12v-46.83h-7.22V267.77z   M109.55,267.77h-8.76c-2.47,0-4.54-0.91-6.22-2.72c-1.74-1.85-2.61-4.09-2.61-6.72c0-2.66,0.87-4.91,2.61-6.75  c1.68-1.83,3.75-2.75,6.22-2.75c2.43,0,4.48,0.92,6.16,2.75c1.74,1.83,2.6,4.09,2.6,6.75V267.77z M151.14,265.7  c-1.7,1.83-3.78,2.75-6.24,2.75c-2.47,0-4.54-0.9-6.22-2.69c-1.66-1.83-2.49-4.06-2.49-6.69c0-2.68,0.83-4.94,2.49-6.78  c1.68-1.82,3.75-2.72,6.22-2.72c2.45,0,4.52,0.91,6.22,2.72c1.74,1.86,2.6,4.12,2.6,6.78C153.71,261.67,152.86,263.88,151.14,265.7" fill="#000000"/>
<path class="st4" d="M297.3,262.25c-2.19-0.62-4.37-1.13-6.54-1.52c-2.48-0.44-4.38-0.88-5.7-1.35c-1.31-0.46-2.06-1.18-2.23-2.15  c-0.08-0.37-0.12-0.74-0.12-1.09c0-1.26,0.51-2.4,1.51-3.41c1.99-2.05,4.81-3.08,8.44-3.08c2.13,0,4.54,0.36,7.22,1.06l1.48-6.45  c-3.1-0.69-5.94-1.04-8.52-1.04c-5.68,0-10.2,1.64-13.55,4.91c-2.59,2.53-3.88,5.25-3.88,8.17c0,0.71,0.08,1.43,0.24,2.16  c0.65,3.26,2.46,5.4,5.42,6.44c2.96,1.04,5.76,1.78,8.41,2.23c1.54,0.3,2.98,0.62,4.33,0.98c1.36,0.35,2.24,0.82,2.65,1.39  c0.45,0.61,0.68,1.3,0.68,2.07c0,0.77-0.24,1.62-0.71,2.54c-0.89,1.74-2.74,3.4-5.56,4.99c-2.82,1.59-6.89,2.38-12.19,2.38  c-4.66,0-8.77-0.85-12.36-2.56c-3.58-1.71-5.9-3.85-6.94-6.44c-0.37-0.91-0.56-1.79-0.56-2.63c0-0.95,0.33-2.06,1-3.35  c0.67-1.28,1.76-2.65,3.26-4.11l-4.65-4.8c-4.07,3.89-6.16,7.32-6.28,10.3c-0.02,0.45-0.03,0.89-0.03,1.3  c0,2.37,0.28,4.25,0.86,5.65c1.56,3.93,4.71,7.08,9.45,9.47c4.75,2.39,10.16,3.58,16.24,3.58c5.78,0,10.84-0.96,15.17-2.87  c4.33-1.91,7.4-4.6,9.19-8.05c0.97-1.91,1.45-3.74,1.45-5.47c0-2.03-0.65-3.95-1.95-5.74C301.22,264.05,299.49,262.87,297.3,262.25" fill="#000000"/>
<path class="st4" d="M275.45,290.98c-1.36,0-2.39,0.44-3.08,1.3c-0.67,0.73-1,1.62-1,2.66c0,1.01,0.35,1.88,1.04,2.63  c0.69,0.79,1.71,1.19,3.05,1.19c1.4,0,2.45-0.4,3.14-1.19c0.69-0.69,1.04-1.57,1.04-2.63c0-1.05-0.34-1.94-1.01-2.66  C277.91,291.41,276.85,290.98,275.45,290.98" fill="#000000"/>
<path class="st4" d="M285.22,290.98c-1.4,0-2.45,0.44-3.14,1.3c-0.63,0.73-0.95,1.62-0.95,2.66c0,1.05,0.32,1.92,0.95,2.63  c0.71,0.79,1.76,1.19,3.14,1.19c1.34,0,2.38-0.4,3.1-1.19c0.71-0.69,1.07-1.57,1.07-2.63c0-1.05-0.35-1.94-1.04-2.69  C287.61,291.4,286.56,290.98,285.22,290.98" fill="#000000"/>
<path class="st4" d="M318.9,239.42c1.32,0,2.36-0.37,3.11-1.12c0.65-0.75,0.98-1.65,0.98-2.69c0-1.05-0.32-1.94-0.95-2.69  c-0.77-0.79-1.82-1.19-3.14-1.19c-1.4,0-2.45,0.4-3.14,1.19c-0.69,0.75-1.04,1.65-1.04,2.69c0,1.07,0.35,1.96,1.04,2.69  C316.48,239.04,317.52,239.42,318.9,239.42" fill="#000000"/>
<path class="st4" d="M341.14,239.51c1.32,0,2.37-0.4,3.14-1.21c0.63-0.75,0.95-1.65,0.95-2.69s-0.32-1.94-0.95-2.69  c-0.77-0.79-1.82-1.19-3.14-1.19c-1.4,0-2.45,0.4-3.14,1.19c-0.69,0.75-1.04,1.65-1.04,2.69c0,1.07,0.35,1.96,1.04,2.69  C338.69,239.1,339.73,239.51,341.14,239.51" fill="#000000"/>
<path class="st4" d="M369.02,276.8c-1.4,0-2.46,0.42-3.17,1.27c-0.67,0.73-1.01,1.63-1.01,2.69s0.35,1.94,1.04,2.63  c0.69,0.79,1.74,1.18,3.14,1.18c1.32,0,2.36-0.4,3.1-1.18c0.65-0.71,0.98-1.59,0.98-2.63s-0.32-1.95-0.95-2.69  C371.4,277.23,370.36,276.8,369.02,276.8" fill="#000000"/>
<path class="st4" d="M359.84,276.8c-1.36,0-2.39,0.42-3.08,1.27c-0.69,0.73-1.04,1.63-1.04,2.69s0.35,1.94,1.04,2.63  c0.69,0.79,1.72,1.18,3.08,1.18c1.38,0,2.42-0.4,3.11-1.18c0.71-0.69,1.06-1.57,1.06-2.63s-0.35-1.96-1.04-2.69  C362.29,277.23,361.24,276.8,359.84,276.8" fill="#000000"/>
<path class="st4" d="M401.69,237.55c1.34,0,2.39-0.4,3.14-1.21c0.63-0.75,0.95-1.64,0.95-2.67c0-1.01-0.31-1.9-0.95-2.69  c-0.75-0.81-1.8-1.21-3.14-1.21c-1.4,0-2.44,0.39-3.11,1.16c-0.67,0.79-1.01,1.71-1.01,2.75c0,1.09,0.32,1.97,0.98,2.67  C399.25,237.15,400.29,237.55,401.69,237.55" fill="#000000"/>
<path class="st4" d="M417.68,258.33c0-4.38-1.57-8.13-4.71-11.25c-3.08-3.1-6.84-4.65-11.28-4.65c-4.44,0-8.21,1.55-11.31,4.65  c-3.12,3.12-4.68,6.87-4.68,11.25c0,4.05,1.03,7.19,3.08,9.44h-9.5h-2.55c-2.9,0-5.02-1.18-6.37-3.55c-1.06-1.91-1.6-4.52-1.6-7.82  v-12.08h-7.25v23.44h-5.33h-2.55c-2.9,0-5.02-1.18-6.36-3.55c-1.06-1.91-1.6-4.52-1.6-7.82v-12.08h-7.25v23.44h-4.65h-3.32  c-2.94,0-5.07-1.2-6.39-3.61c-1.05-1.93-1.57-4.55-1.57-7.85v-12.08h-7.28v23.62c0,7-3.41,12.58-10.24,16.72l3.4,5.63  c9.14-5.53,13.79-11.74,13.97-18.65c1.06,1.66,3.69,2.53,7.87,2.6h0.21h3.35h11.9v-2.46c1.05,1.6,3.66,2.42,7.84,2.46h0h2.66h12.58  v-2.99c1.66,2,4.2,2.99,7.64,2.99h0.2h0h2.66h38.45L417.68,258.33z M410.42,267.77h-8.79c-2.55,0-4.64-0.91-6.28-2.72  c-1.7-1.81-2.54-4.05-2.54-6.72c0-2.66,0.87-4.91,2.6-6.75c1.72-1.83,3.81-2.75,6.28-2.75c2.45,0,4.51,0.91,6.19,2.72  c1.7,1.86,2.54,4.12,2.54,6.78V267.77z" fill="#000000"/>
<polygon class="st4" points="11.43,350.25 11.43,306.81 39.03,306.81 39.03,312.89 18.98,312.89 18.98,325.82 36.47,325.82   36.47,331.84 18.98,331.84 18.98,350.25 " fill="#000000"/>
<path class="st4" d="M44.31,309.58c0-1.12,0.35-2.04,1.06-2.78c0.71-0.74,1.72-1.1,3.03-1.1c1.31,0,2.33,0.37,3.04,1.1  c0.72,0.74,1.08,1.66,1.08,2.78c0,1.09-0.36,2-1.08,2.73c-0.72,0.73-1.73,1.09-3.04,1.09c-1.31,0-2.32-0.36-3.03-1.09  C44.67,311.59,44.31,310.68,44.31,309.58 M52.01,350.25h-7.25v-32.28h7.25V350.25z" fill="#000000"/>
<path class="st4" d="M59.8,317.97h6.83l0.21,3.73c2.39-2.88,5.52-4.33,9.4-4.33c6.72,0,10.14,3.85,10.26,11.55v21.33h-7.25v-20.92  c0-2.05-0.44-3.57-1.33-4.55c-0.89-0.98-2.33-1.48-4.34-1.48c-2.92,0-5.1,1.32-6.53,3.97v22.97H59.8V317.97z" fill="#000000"/>
<polygon class="st4" points="101.69,344.23 124.91,344.23 124.91,350.25 92.56,350.25 92.56,345.36 115.03,312.9 92.71,312.9   92.71,306.81 124.19,306.81 124.19,311.58 " fill="#000000"/>
<path class="st4" d="M129.44,334.95v-0.89c0-3.22,0.62-6.1,1.87-8.64c1.24-2.54,2.99-4.51,5.24-5.92c2.25-1.41,4.75-2.12,7.52-2.12  c4.4,0,7.79,1.4,10.19,4.21c2.4,2.81,3.59,6.77,3.59,11.91v2.92h-21.09c0.22,2.67,1.11,4.77,2.67,6.32  c1.56,1.55,3.53,2.33,5.89,2.33c3.32,0,6.03-1.34,8.12-4.03l3.91,3.73c-1.29,1.93-3.02,3.43-5.18,4.49c-2.16,1.06-4.58,1.6-7.27,1.6  c-4.6,0-8.32-1.45-11.18-4.34C130.87,343.61,129.44,339.76,129.44,334.95 M136.87,331.1h13.82v-0.54c-0.16-2.43-0.81-4.26-1.94-5.51  c-1.13-1.24-2.71-1.87-4.71-1.87c-1.99,0-3.6,0.7-4.82,2.09C137.99,326.67,137.21,328.61,136.87,331.1" fill="#000000"/>
<path class="st4" d="M160.12,317.97h7.82l6.83,21.9l6.56-21.9h7.73l-12.83,37.18c-1.97,5.43-5.31,8.15-10.03,8.15  c-1.05,0-2.22-0.18-3.49-0.54v-5.61l1.37,0.09c1.83,0,3.21-0.33,4.13-1c0.92-0.67,1.65-1.79,2.19-3.36l1.04-2.77L160.12,317.97z" fill="#000000"/>
<polygon class="st4" points="209.08,350.25 209.08,306.81 236.68,306.81 236.68,312.89 216.63,312.89 216.63,325.82 234.11,325.82   234.11,331.84 216.63,331.84 216.63,350.25 " fill="#000000"/>
<path class="st4" d="M241.96,309.58c0-1.12,0.35-2.04,1.06-2.78c0.71-0.74,1.72-1.1,3.03-1.1c1.31,0,2.33,0.37,3.04,1.1  c0.72,0.74,1.07,1.66,1.07,2.78c0,1.09-0.36,2-1.07,2.73c-0.72,0.73-1.73,1.09-3.04,1.09c-1.31,0-2.32-0.36-3.03-1.09  C242.31,311.59,241.96,310.68,241.96,309.58 M249.66,350.25h-7.25v-32.28h7.25V350.25z" fill="#000000"/>
<path class="st4" d="M257.45,317.97h6.83l0.21,3.73c2.39-2.88,5.52-4.33,9.4-4.33c6.72,0,10.14,3.85,10.26,11.55v21.33h-7.25v-20.92  c0-2.05-0.44-3.57-1.33-4.55c-0.89-0.98-2.33-1.48-4.34-1.48c-2.92,0-5.1,1.32-6.53,3.97v22.97h-7.25V317.97z" fill="#000000"/>
<path class="st4" d="M290.51,341.21c0-3.44,1.28-6.08,3.83-7.92c2.56-1.84,6.21-2.76,10.97-2.76h4.44v-2.12  c0-1.67-0.46-3.01-1.4-4.01c-0.94-1.01-2.36-1.51-4.27-1.51c-1.65,0-3,0.41-4.06,1.24c-1.06,0.83-1.58,1.87-1.58,3.15h-7.25  c0-1.77,0.59-3.43,1.76-4.97c1.18-1.54,2.77-2.75,4.79-3.63c2.02-0.87,4.27-1.31,6.76-1.31c3.78,0,6.79,0.95,9.04,2.85  c2.24,1.9,3.4,4.57,3.46,8.01v14.56c0,2.91,0.41,5.22,1.22,6.95v0.51h-7.4c-0.32-0.62-0.6-1.62-0.83-3.01  c-2.31,2.41-5.13,3.61-8.47,3.61c-3.24,0-5.89-0.93-7.94-2.78C291.53,346.22,290.51,343.94,290.51,341.21 M297.76,340.47  c0,1.39,0.46,2.5,1.39,3.33c0.92,0.83,2.16,1.24,3.71,1.24c1.43,0,2.78-0.35,4.04-1.05c1.27-0.69,2.21-1.63,2.85-2.81v-6.09h-3.91  c-2.69,0-4.71,0.47-6.06,1.4C298.44,337.43,297.76,338.76,297.76,340.47" fill="#000000"/>
<path class="st4" d="M324.49,317.97h6.83l0.21,3.73c2.39-2.88,5.52-4.33,9.4-4.33c6.72,0,10.14,3.85,10.26,11.55v21.33h-7.25v-20.92  c0-2.05-0.44-3.57-1.33-4.55c-0.89-0.98-2.33-1.48-4.34-1.48c-2.92,0-5.1,1.32-6.53,3.97v22.97h-7.25V317.97z" fill="#000000"/>
<path class="st4" d="M357.23,334.35v-0.74c0-4.91,1.31-8.85,3.94-11.8c2.63-2.95,6.21-4.43,10.74-4.43c3.84,0,6.97,1.12,9.38,3.36  c2.42,2.24,3.68,5.18,3.8,8.82h-6.83c-0.08-1.85-0.71-3.37-1.9-4.56c-1.18-1.19-2.69-1.79-4.52-1.79c-2.35,0-4.15,0.85-5.43,2.55  c-1.28,1.7-1.92,4.28-1.94,7.74v1.17c0,3.5,0.63,6.11,1.9,7.83c1.26,1.72,3.09,2.58,5.47,2.58c1.81,0,3.31-0.53,4.51-1.58  c1.19-1.05,1.83-2.36,1.91-3.91h6.83c-0.08,2.01-0.71,3.88-1.88,5.63c-1.18,1.74-2.77,3.12-4.77,4.13  c-2.01,1.01-4.18,1.52-6.51,1.52c-4.51,0-8.09-1.46-10.74-4.39C358.55,343.54,357.23,339.5,357.23,334.35" fill="#000000"/>
<path class="st4" d="M389.33,334.95v-0.89c0-3.22,0.62-6.1,1.87-8.64c1.24-2.54,2.99-4.51,5.24-5.92c2.25-1.41,4.75-2.12,7.52-2.12  c4.4,0,7.79,1.4,10.19,4.21c2.4,2.81,3.59,6.77,3.59,11.91v2.92h-21.09c0.22,2.67,1.11,4.77,2.67,6.32  c1.56,1.55,3.53,2.33,5.89,2.33c3.32,0,6.03-1.34,8.12-4.03l3.91,3.73c-1.29,1.93-3.02,3.43-5.18,4.49c-2.16,1.06-4.58,1.6-7.27,1.6  c-4.6,0-8.32-1.45-11.18-4.34C390.76,343.61,389.33,339.76,389.33,334.95 M396.76,331.1h13.82v-0.54c-0.16-2.43-0.81-4.26-1.94-5.51  c-1.14-1.24-2.71-1.87-4.72-1.87c-1.99,0-3.6,0.7-4.82,2.09C397.88,326.67,397.1,328.61,396.76,331.1" fill="#000000"/>
</svg>